<?xml version="1.0" encoding="UTF-8" standalone="no"?>
<!DOCTYPE svg PUBLIC "-//W3C//DTD SVG 1.1//EN"
 "http://www.w3.org/Graphics/SVG/1.1/DTD/svg11.dtd">
<!-- Generated by graphviz version 2.36.0 (20140111.2315)
 -->
<!-- Title: controllers_diagram Pages: 1 -->
<svg width="477pt" height="549pt"
 viewBox="0.00 0.00 477.00 549.00" xmlns="http://www.w3.org/2000/svg" xmlns:xlink="http://www.w3.org/1999/xlink">
<g id="graph0" class="graph" transform="scale(1 1) rotate(0) translate(4 545)">
<title>controllers_diagram</title>
<polygon fill="none" stroke="none" points="-4,4 -4,-545 473,-545 473,4 -4,4"/>
<!-- _diagram_info -->
<g id="node1" class="node"><title>_diagram_info</title>
<text text-anchor="start" x="263" y="-454.6" font-family="Times,serif" font-size="13.00">Controllers diagram</text>
<text text-anchor="start" x="263" y="-440.6" font-family="Times,serif" font-size="13.00">Date: May 22 2016 &#45; 22:49</text>
<text text-anchor="start" x="263" y="-426.6" font-family="Times,serif" font-size="13.00">Migration version: 20160506125158</text>
<text text-anchor="start" x="263" y="-412.6" font-family="Times,serif" font-size="13.00">Generated by RailRoady 1.4.2</text>
<text text-anchor="start" x="263" y="-398.6" font-family="Times,serif" font-size="13.00">http://railroady.prestonlee.com</text>
</g>
<!-- ProfilesController -->
<g id="node2" class="node"><title>ProfilesController</title>
<path fill="none" stroke="black" d="M12,-357.5C12,-357.5 102,-357.5 102,-357.5 108,-357.5 114,-363.5 114,-369.5 114,-369.5 114,-528.5 114,-528.5 114,-534.5 108,-540.5 102,-540.5 102,-540.5 12,-540.5 12,-540.5 6,-540.5 0,-534.5 0,-528.5 0,-528.5 0,-369.5 0,-369.5 0,-363.5 6,-357.5 12,-357.5"/>
<text text-anchor="middle" x="57" y="-525.3" font-family="Times,serif" font-size="14.00">ProfilesController</text>
<polyline fill="none" stroke="black" points="0,-517.5 114,-517.5 "/>
<text text-anchor="start" x="8" y="-502.3" font-family="Times,serif" font-size="14.00">destroy</text>
<text text-anchor="start" x="8" y="-487.3" font-family="Times,serif" font-size="14.00">edit</text>
<text text-anchor="start" x="8" y="-472.3" font-family="Times,serif" font-size="14.00">new</text>
<text text-anchor="start" x="8" y="-457.3" font-family="Times,serif" font-size="14.00">show</text>
<text text-anchor="start" x="8" y="-442.3" font-family="Times,serif" font-size="14.00">update</text>
<polyline fill="none" stroke="black" points="0,-434.5 114,-434.5 "/>
<polyline fill="none" stroke="black" points="0,-410.5 114,-410.5 "/>
<text text-anchor="start" x="8" y="-395.3" font-family="Times,serif" font-size="14.00">_layout</text>
<text text-anchor="start" x="8" y="-380.3" font-family="Times,serif" font-size="14.00">profile_params</text>
<text text-anchor="start" x="8" y="-365.3" font-family="Times,serif" font-size="14.00">set_profile</text>
</g>
<!-- ApplicationController -->
<g id="node3" class="node"><title>ApplicationController</title>
<path fill="none" stroke="black" d="M318,-187.5C318,-187.5 430,-187.5 430,-187.5 436,-187.5 442,-193.5 442,-199.5 442,-199.5 442,-269.5 442,-269.5 442,-275.5 436,-281.5 430,-281.5 430,-281.5 318,-281.5 318,-281.5 312,-281.5 306,-275.5 306,-269.5 306,-269.5 306,-199.5 306,-199.5 306,-193.5 312,-187.5 318,-187.5"/>
<text text-anchor="middle" x="374" y="-266.3" font-family="Times,serif" font-size="14.00">ApplicationController</text>
<polyline fill="none" stroke="black" points="306,-258.5 442,-258.5 "/>
<polyline fill="none" stroke="black" points="306,-234.5 442,-234.5 "/>
<polyline fill="none" stroke="black" points="306,-210.5 442,-210.5 "/>
<text text-anchor="start" x="314" y="-195.3" font-family="Times,serif" font-size="14.00">_layout</text>
</g>
<!-- BooksController -->
<g id="node4" class="node"><title>BooksController</title>
<path fill="none" stroke="black" d="M29,-102.5C29,-102.5 112,-102.5 112,-102.5 118,-102.5 124,-108.5 124,-114.5 124,-114.5 124,-303.5 124,-303.5 124,-309.5 118,-315.5 112,-315.5 112,-315.5 29,-315.5 29,-315.5 23,-315.5 17,-309.5 17,-303.5 17,-303.5 17,-114.5 17,-114.5 17,-108.5 23,-102.5 29,-102.5"/>
<text text-anchor="middle" x="70.5" y="-300.3" font-family="Times,serif" font-size="14.00">BooksController</text>
<polyline fill="none" stroke="black" points="17,-292.5 124,-292.5 "/>
<text text-anchor="start" x="25" y="-277.3" font-family="Times,serif" font-size="14.00">create</text>
<text text-anchor="start" x="25" y="-262.3" font-family="Times,serif" font-size="14.00">destroy</text>
<text text-anchor="start" x="25" y="-247.3" font-family="Times,serif" font-size="14.00">edit</text>
<text text-anchor="start" x="25" y="-232.3" font-family="Times,serif" font-size="14.00">index</text>
<text text-anchor="start" x="25" y="-217.3" font-family="Times,serif" font-size="14.00">new</text>
<text text-anchor="start" x="25" y="-202.3" font-family="Times,serif" font-size="14.00">show</text>
<text text-anchor="start" x="25" y="-187.3" font-family="Times,serif" font-size="14.00">update</text>
<polyline fill="none" stroke="black" points="17,-179.5 124,-179.5 "/>
<polyline fill="none" stroke="black" points="17,-155.5 124,-155.5 "/>
<text text-anchor="start" x="25" y="-140.3" font-family="Times,serif" font-size="14.00">_layout</text>
<text text-anchor="start" x="25" y="-125.3" font-family="Times,serif" font-size="14.00">book_params</text>
<text text-anchor="start" x="25" y="-110.3" font-family="Times,serif" font-size="14.00">find_book</text>
</g>
<!-- ReviewsController -->
<g id="node5" class="node"><title>ReviewsController</title>
<path fill="none" stroke="black" d="M165,-153.5C165,-153.5 260,-153.5 260,-153.5 266,-153.5 272,-159.5 272,-165.5 272,-165.5 272,-339.5 272,-339.5 272,-345.5 266,-351.5 260,-351.5 260,-351.5 165,-351.5 165,-351.5 159,-351.5 153,-345.5 153,-339.5 153,-339.5 153,-165.5 153,-165.5 153,-159.5 159,-153.5 165,-153.5"/>
<text text-anchor="middle" x="212.5" y="-336.3" font-family="Times,serif" font-size="14.00">ReviewsController</text>
<polyline fill="none" stroke="black" points="153,-328.5 272,-328.5 "/>
<text text-anchor="start" x="161" y="-313.3" font-family="Times,serif" font-size="14.00">create</text>
<text text-anchor="start" x="161" y="-298.3" font-family="Times,serif" font-size="14.00">destroy</text>
<text text-anchor="start" x="161" y="-283.3" font-family="Times,serif" font-size="14.00">edit</text>
<text text-anchor="start" x="161" y="-268.3" font-family="Times,serif" font-size="14.00">new</text>
<text text-anchor="start" x="161" y="-253.3" font-family="Times,serif" font-size="14.00">update</text>
<polyline fill="none" stroke="black" points="153,-245.5 272,-245.5 "/>
<polyline fill="none" stroke="black" points="153,-221.5 272,-221.5 "/>
<text text-anchor="start" x="161" y="-206.3" font-family="Times,serif" font-size="14.00">_layout</text>
<text text-anchor="start" x="161" y="-191.3" font-family="Times,serif" font-size="14.00">find_book</text>
<text text-anchor="start" x="161" y="-176.3" font-family="Times,serif" font-size="14.00">find_review</text>
<text text-anchor="start" x="161" y="-161.3" font-family="Times,serif" font-size="14.00">review_params</text>
</g>
<!-- CategoriesController -->
<g id="node6" class="node"><title>CategoriesController</title>
<path fill="none" stroke="black" d="M318,-0.5C318,-0.5 424,-0.5 424,-0.5 430,-0.5 436,-6.5 436,-12.5 436,-12.5 436,-141.5 436,-141.5 436,-147.5 430,-153.5 424,-153.5 424,-153.5 318,-153.5 318,-153.5 312,-153.5 306,-147.5 306,-141.5 306,-141.5 306,-12.5 306,-12.5 306,-6.5 312,-0.5 318,-0.5"/>
<text text-anchor="middle" x="371" y="-138.3" font-family="Times,serif" font-size="14.00">CategoriesController</text>
<polyline fill="none" stroke="black" points="306,-130.5 436,-130.5 "/>
<text text-anchor="start" x="314" y="-115.3" font-family="Times,serif" font-size="14.00">create</text>
<text text-anchor="start" x="314" y="-100.3" font-family="Times,serif" font-size="14.00">index</text>
<text text-anchor="start" x="314" y="-85.3" font-family="Times,serif" font-size="14.00">new</text>
<text text-anchor="start" x="314" y="-70.3" font-family="Times,serif" font-size="14.00">show</text>
<polyline fill="none" stroke="black" points="306,-62.5 436,-62.5 "/>
<polyline fill="none" stroke="black" points="306,-38.5 436,-38.5 "/>
<text text-anchor="start" x="314" y="-23.3" font-family="Times,serif" font-size="14.00">_layout</text>
<text text-anchor="start" x="314" y="-8.3" font-family="Times,serif" font-size="14.00">category_params</text>
</g>
</g>
</svg>
