<?xml version="1.0" encoding="UTF-8" standalone="no"?>
<!DOCTYPE svg PUBLIC "-//W3C//DTD SVG 1.1//EN"
 "http://www.w3.org/Graphics/SVG/1.1/DTD/svg11.dtd">
<!-- Generated by graphviz version 2.36.0 (20140111.2315)
 -->
<!-- Title: models_diagram Pages: 1 -->
<svg width="620pt" height="750pt"
 viewBox="0.00 0.00 620.00 750.00" xmlns="http://www.w3.org/2000/svg" xmlns:xlink="http://www.w3.org/1999/xlink">
<g id="graph0" class="graph" transform="scale(1 1) rotate(0) translate(4 746)">
<title>models_diagram</title>
<polygon fill="none" stroke="none" points="-4,4 -4,-746 616,-746 616,4 -4,4"/>
<!-- _diagram_info -->
<g id="node1" class="node"><title>_diagram_info</title>
<text text-anchor="start" x="7" y="-645.6" font-family="Times,serif" font-size="13.00">Models diagram</text>
<text text-anchor="start" x="7" y="-631.6" font-family="Times,serif" font-size="13.00">Date: May 22 2016 &#45; 22:49</text>
<text text-anchor="start" x="7" y="-617.6" font-family="Times,serif" font-size="13.00">Migration version: 20160506125158</text>
<text text-anchor="start" x="7" y="-603.6" font-family="Times,serif" font-size="13.00">Generated by RailRoady 1.4.2</text>
<text text-anchor="start" x="7" y="-589.6" font-family="Times,serif" font-size="13.00">http://railroady.prestonlee.com</text>
</g>
<!-- Review -->
<g id="node2" class="node"><title>Review</title>
<path fill="none" stroke="black" d="M237.5,-1C237.5,-1 344.5,-1 344.5,-1 350.5,-1 356.5,-7 356.5,-13 356.5,-13 356.5,-125 356.5,-125 356.5,-131 350.5,-137 344.5,-137 344.5,-137 237.5,-137 237.5,-137 231.5,-137 225.5,-131 225.5,-125 225.5,-125 225.5,-13 225.5,-13 225.5,-7 231.5,-1 237.5,-1"/>
<text text-anchor="middle" x="291" y="-121.8" font-family="Times,serif" font-size="14.00">Review</text>
<polyline fill="none" stroke="black" points="225.5,-114 356.5,-114 "/>
<text text-anchor="start" x="233.5" y="-98.8" font-family="Times,serif" font-size="14.00">id :INTEGER</text>
<text text-anchor="start" x="233.5" y="-83.8" font-family="Times,serif" font-size="14.00">rating :integer</text>
<text text-anchor="start" x="233.5" y="-68.8" font-family="Times,serif" font-size="14.00">comment :text</text>
<text text-anchor="start" x="233.5" y="-53.8" font-family="Times,serif" font-size="14.00">created_at :datetime</text>
<text text-anchor="start" x="233.5" y="-38.8" font-family="Times,serif" font-size="14.00">updated_at :datetime</text>
<text text-anchor="start" x="233.5" y="-23.8" font-family="Times,serif" font-size="14.00">user_id :integer</text>
<text text-anchor="start" x="233.5" y="-8.8" font-family="Times,serif" font-size="14.00">book_id :integer</text>
</g>
<!-- User -->
<g id="node3" class="node"><title>User</title>
<path fill="none" stroke="black" d="M243,-500.5C243,-500.5 419,-500.5 419,-500.5 425,-500.5 431,-506.5 431,-512.5 431,-512.5 431,-729.5 431,-729.5 431,-735.5 425,-741.5 419,-741.5 419,-741.5 243,-741.5 243,-741.5 237,-741.5 231,-735.5 231,-729.5 231,-729.5 231,-512.5 231,-512.5 231,-506.5 237,-500.5 243,-500.5"/>
<text text-anchor="middle" x="331" y="-726.3" font-family="Times,serif" font-size="14.00">User</text>
<polyline fill="none" stroke="black" points="231,-718.5 431,-718.5 "/>
<text text-anchor="start" x="239" y="-703.3" font-family="Times,serif" font-size="14.00">id :INTEGER</text>
<text text-anchor="start" x="239" y="-688.3" font-family="Times,serif" font-size="14.00">email :varchar</text>
<text text-anchor="start" x="239" y="-673.3" font-family="Times,serif" font-size="14.00">encrypted_password :varchar</text>
<text text-anchor="start" x="239" y="-658.3" font-family="Times,serif" font-size="14.00">reset_password_token :varchar</text>
<text text-anchor="start" x="239" y="-643.3" font-family="Times,serif" font-size="14.00">reset_password_sent_at :datetime</text>
<text text-anchor="start" x="239" y="-628.3" font-family="Times,serif" font-size="14.00">remember_created_at :datetime</text>
<text text-anchor="start" x="239" y="-613.3" font-family="Times,serif" font-size="14.00">sign_in_count :integer</text>
<text text-anchor="start" x="239" y="-598.3" font-family="Times,serif" font-size="14.00">current_sign_in_at :datetime</text>
<text text-anchor="start" x="239" y="-583.3" font-family="Times,serif" font-size="14.00">last_sign_in_at :datetime</text>
<text text-anchor="start" x="239" y="-568.3" font-family="Times,serif" font-size="14.00">current_sign_in_ip :varchar</text>
<text text-anchor="start" x="239" y="-553.3" font-family="Times,serif" font-size="14.00">last_sign_in_ip :varchar</text>
<text text-anchor="start" x="239" y="-538.3" font-family="Times,serif" font-size="14.00">created_at :datetime</text>
<text text-anchor="start" x="239" y="-523.3" font-family="Times,serif" font-size="14.00">updated_at :datetime</text>
<text text-anchor="start" x="239" y="-508.3" font-family="Times,serif" font-size="14.00">admin :boolean</text>
</g>
<!-- User&#45;&gt;Review -->
<g id="edge2" class="edge"><title>User&#45;&gt;Review</title>
<path fill="none" stroke="#6b6df8" d="M265.698,-492.536C262.232,-482.381 259.255,-472.131 257,-462 230.736,-343.999 240.364,-309.739 257,-190 258.961,-175.885 262.161,-161.096 265.833,-146.914"/>
<ellipse fill="none" stroke="#6b6df8" cx="267.104" cy="-496.509" rx="4.00001" ry="4.00001"/>
<polygon fill="#6b6df8" stroke="#6b6df8" points="265.846,-146.865 272.787,-138.375 267.144,-142.036 268.441,-137.207 268.441,-137.207 268.441,-137.207 267.144,-142.036 264.095,-136.039 265.846,-146.865 265.846,-146.865"/>
</g>
<!-- Profile -->
<g id="node5" class="node"><title>Profile</title>
<path fill="none" stroke="black" d="M278.5,-235.5C278.5,-235.5 385.5,-235.5 385.5,-235.5 391.5,-235.5 397.5,-241.5 397.5,-247.5 397.5,-247.5 397.5,-404.5 397.5,-404.5 397.5,-410.5 391.5,-416.5 385.5,-416.5 385.5,-416.5 278.5,-416.5 278.5,-416.5 272.5,-416.5 266.5,-410.5 266.5,-404.5 266.5,-404.5 266.5,-247.5 266.5,-247.5 266.5,-241.5 272.5,-235.5 278.5,-235.5"/>
<text text-anchor="middle" x="332" y="-401.3" font-family="Times,serif" font-size="14.00">Profile</text>
<polyline fill="none" stroke="black" points="266.5,-393.5 397.5,-393.5 "/>
<text text-anchor="start" x="274.5" y="-378.3" font-family="Times,serif" font-size="14.00">id :INTEGER</text>
<text text-anchor="start" x="274.5" y="-363.3" font-family="Times,serif" font-size="14.00">user_id :integer</text>
<text text-anchor="start" x="274.5" y="-348.3" font-family="Times,serif" font-size="14.00">name :varchar</text>
<text text-anchor="start" x="274.5" y="-333.3" font-family="Times,serif" font-size="14.00">birthday :date</text>
<text text-anchor="start" x="274.5" y="-318.3" font-family="Times,serif" font-size="14.00">gender :varchar</text>
<text text-anchor="start" x="274.5" y="-303.3" font-family="Times,serif" font-size="14.00">tel :varchar</text>
<text text-anchor="start" x="274.5" y="-288.3" font-family="Times,serif" font-size="14.00">address :varchar</text>
<text text-anchor="start" x="274.5" y="-273.3" font-family="Times,serif" font-size="14.00">created_at :datetime</text>
<text text-anchor="start" x="274.5" y="-258.3" font-family="Times,serif" font-size="14.00">updated_at :datetime</text>
<text text-anchor="start" x="274.5" y="-243.3" font-family="Times,serif" font-size="14.00">image :varchar</text>
</g>
<!-- User&#45;&gt;Profile -->
<g id="edge3" class="edge"><title>User&#45;&gt;Profile</title>
<path fill="none" stroke="#920474" d="M331.436,-492.163C331.513,-469.573 331.593,-446.382 331.666,-424.785"/>
<ellipse fill="none" stroke="#920474" cx="331.422" cy="-496.403" rx="4" ry="4"/>
<ellipse fill="#920474" stroke="#920474" cx="331.681" cy="-420.59" rx="4" ry="4"/>
</g>
<!-- Book -->
<g id="node6" class="node"><title>Book</title>
<path fill="none" stroke="black" d="M427.5,-190.5C427.5,-190.5 600.5,-190.5 600.5,-190.5 606.5,-190.5 612.5,-196.5 612.5,-202.5 612.5,-202.5 612.5,-449.5 612.5,-449.5 612.5,-455.5 606.5,-461.5 600.5,-461.5 600.5,-461.5 427.5,-461.5 427.5,-461.5 421.5,-461.5 415.5,-455.5 415.5,-449.5 415.5,-449.5 415.5,-202.5 415.5,-202.5 415.5,-196.5 421.5,-190.5 427.5,-190.5"/>
<text text-anchor="middle" x="514" y="-446.3" font-family="Times,serif" font-size="14.00">Book</text>
<polyline fill="none" stroke="black" points="415.5,-438.5 612.5,-438.5 "/>
<text text-anchor="start" x="423.5" y="-423.3" font-family="Times,serif" font-size="14.00">id :INTEGER</text>
<text text-anchor="start" x="423.5" y="-408.3" font-family="Times,serif" font-size="14.00">title :varchar</text>
<text text-anchor="start" x="423.5" y="-393.3" font-family="Times,serif" font-size="14.00">description :text</text>
<text text-anchor="start" x="423.5" y="-378.3" font-family="Times,serif" font-size="14.00">author :varchar</text>
<text text-anchor="start" x="423.5" y="-363.3" font-family="Times,serif" font-size="14.00">created_at :datetime</text>
<text text-anchor="start" x="423.5" y="-348.3" font-family="Times,serif" font-size="14.00">updated_at :datetime</text>
<text text-anchor="start" x="423.5" y="-333.3" font-family="Times,serif" font-size="14.00">user_id :integer</text>
<text text-anchor="start" x="423.5" y="-318.3" font-family="Times,serif" font-size="14.00">category_id :integer</text>
<text text-anchor="start" x="423.5" y="-303.3" font-family="Times,serif" font-size="14.00">book_img_file_name :varchar</text>
<text text-anchor="start" x="423.5" y="-288.3" font-family="Times,serif" font-size="14.00">book_img_content_type :varchar</text>
<text text-anchor="start" x="423.5" y="-273.3" font-family="Times,serif" font-size="14.00">book_img_file_size :integer</text>
<text text-anchor="start" x="423.5" y="-258.3" font-family="Times,serif" font-size="14.00">book_img_updated_at :datetime</text>
<text text-anchor="start" x="423.5" y="-243.3" font-family="Times,serif" font-size="14.00">pdf_file_name :varchar</text>
<text text-anchor="start" x="423.5" y="-228.3" font-family="Times,serif" font-size="14.00">pdf_content_type :varchar</text>
<text text-anchor="start" x="423.5" y="-213.3" font-family="Times,serif" font-size="14.00">pdf_file_size :integer</text>
<text text-anchor="start" x="423.5" y="-198.3" font-family="Times,serif" font-size="14.00">pdf_updated_at :datetime</text>
</g>
<!-- User&#45;&gt;Book -->
<g id="edge1" class="edge"><title>User&#45;&gt;Book</title>
<path fill="none" stroke="#95529e" d="M410.028,-493.469C414.884,-485.694 419.788,-477.842 424.683,-470.004"/>
<ellipse fill="none" stroke="#95529e" cx="407.816" cy="-497.01" rx="4.00002" ry="4.00002"/>
<polygon fill="#95529e" stroke="#95529e" points="424.692,-469.99 433.806,-463.892 427.341,-465.749 429.99,-461.509 429.99,-461.509 429.99,-461.509 427.341,-465.749 426.173,-459.125 424.692,-469.99 424.692,-469.99"/>
</g>
<!-- Category -->
<g id="node4" class="node"><title>Category</title>
<path fill="none" stroke="black" d="M461.5,-575.5C461.5,-575.5 568.5,-575.5 568.5,-575.5 574.5,-575.5 580.5,-581.5 580.5,-587.5 580.5,-587.5 580.5,-654.5 580.5,-654.5 580.5,-660.5 574.5,-666.5 568.5,-666.5 568.5,-666.5 461.5,-666.5 461.5,-666.5 455.5,-666.5 449.5,-660.5 449.5,-654.5 449.5,-654.5 449.5,-587.5 449.5,-587.5 449.5,-581.5 455.5,-575.5 461.5,-575.5"/>
<text text-anchor="middle" x="515" y="-651.3" font-family="Times,serif" font-size="14.00">Category</text>
<polyline fill="none" stroke="black" points="449.5,-643.5 580.5,-643.5 "/>
<text text-anchor="start" x="457.5" y="-628.3" font-family="Times,serif" font-size="14.00">id :INTEGER</text>
<text text-anchor="start" x="457.5" y="-613.3" font-family="Times,serif" font-size="14.00">name :varchar</text>
<text text-anchor="start" x="457.5" y="-598.3" font-family="Times,serif" font-size="14.00">created_at :datetime</text>
<text text-anchor="start" x="457.5" y="-583.3" font-family="Times,serif" font-size="14.00">updated_at :datetime</text>
</g>
<!-- Category&#45;&gt;Book -->
<g id="edge4" class="edge"><title>Category&#45;&gt;Book</title>
<path fill="none" stroke="#f0252f" d="M514.82,-567.386C514.728,-540.42 514.611,-506.12 514.495,-471.934"/>
<ellipse fill="none" stroke="#f0252f" cx="514.834" cy="-571.5" rx="4" ry="4"/>
<polygon fill="#f0252f" stroke="#f0252f" points="514.494,-471.82 518.96,-461.805 514.477,-466.82 514.46,-461.82 514.46,-461.82 514.46,-461.82 514.477,-466.82 509.96,-461.836 514.494,-471.82 514.494,-471.82"/>
</g>
<!-- Book&#45;&gt;Review -->
<g id="edge6" class="edge"><title>Book&#45;&gt;Review</title>
<path fill="none" stroke="#0635ab" d="M409.748,-194.299C408.495,-192.855 407.245,-191.422 406,-190 392.601,-174.705 377.864,-158.738 363.542,-143.627"/>
<ellipse fill="none" stroke="#0635ab" cx="412.645" cy="-197.66" rx="4.00002" ry="4.00002"/>
<polygon fill="#0635ab" stroke="#0635ab" points="363.448,-143.528 359.812,-133.182 360,-139.906 356.552,-136.285 356.552,-136.285 356.552,-136.285 360,-139.906 353.293,-139.388 363.448,-143.528 363.448,-143.528"/>
</g>
<!-- ActsAsVotable::Vote -->
<g id="node7" class="node"><title>ActsAsVotable::Vote</title>
<ellipse fill="none" stroke="black" cx="514" cy="-69" rx="86.1637" ry="18"/>
<text text-anchor="middle" x="514" y="-65.3" font-family="Times,serif" font-size="14.00">ActsAsVotable::Vote</text>
</g>
<!-- Book&#45;&gt;ActsAsVotable::Vote -->
<g id="edge5" class="edge"><title>Book&#45;&gt;ActsAsVotable::Vote</title>
<path fill="none" stroke="#cea0b9" d="M514,-182.219C514,-149.641 514,-118.413 514,-97.2093"/>
<ellipse fill="none" stroke="#cea0b9" cx="514" cy="-186.406" rx="4" ry="4"/>
<polygon fill="#cea0b9" stroke="#cea0b9" points="514,-97.0806 518.5,-87.0806 514,-92.0806 514,-87.0806 514,-87.0806 514,-87.0806 514,-92.0806 509.5,-87.0807 514,-97.0806 514,-97.0806"/>
<text text-anchor="middle" x="540" y="-160.3" font-family="Times,serif" font-size="14.00">votes_for</text>
</g>
</g>
</svg>
