<?xml version="1.0" encoding="UTF-8" standalone="no"?>
<!DOCTYPE svg PUBLIC "-//W3C//DTD SVG 1.1//EN"
 "http://www.w3.org/Graphics/SVG/1.1/DTD/svg11.dtd">
<!-- Generated by graphviz version 2.36.0 (20140111.2315)
 -->
<!-- Title: models_diagram Pages: 1 -->
<svg width="437pt" height="248pt"
 viewBox="0.00 0.00 437.00 248.00" xmlns="http://www.w3.org/2000/svg" xmlns:xlink="http://www.w3.org/1999/xlink">
<g id="graph0" class="graph" transform="scale(1 1) rotate(0) translate(4 244)">
<title>models_diagram</title>
<polygon fill="none" stroke="none" points="-4,4 -4,-244 433,-244 433,4 -4,4"/>
<!-- _diagram_info -->
<g id="node1" class="node"><title>_diagram_info</title>
<text text-anchor="start" x="7" y="-225.6" font-family="Times,serif" font-size="13.00">Models diagram</text>
<text text-anchor="start" x="7" y="-211.6" font-family="Times,serif" font-size="13.00">Date: May 22 2016 &#45; 22:49</text>
<text text-anchor="start" x="7" y="-197.6" font-family="Times,serif" font-size="13.00">Migration version: 20160506125158</text>
<text text-anchor="start" x="7" y="-183.6" font-family="Times,serif" font-size="13.00">Generated by RailRoady 1.4.2</text>
<text text-anchor="start" x="7" y="-169.6" font-family="Times,serif" font-size="13.00">http://railroady.prestonlee.com</text>
</g>
<!-- Review -->
<g id="node2" class="node"><title>Review</title>
<ellipse fill="none" stroke="black" cx="200" cy="-18" rx="37.5442" ry="18"/>
<text text-anchor="middle" x="200" y="-14.3" font-family="Times,serif" font-size="14.00">Review</text>
</g>
<!-- User -->
<g id="node3" class="node"><title>User</title>
<ellipse fill="none" stroke="black" cx="258" cy="-201" rx="26.949" ry="18"/>
<text text-anchor="middle" x="258" y="-197.3" font-family="Times,serif" font-size="14.00">User</text>
</g>
<!-- User&#45;&gt;Review -->
<g id="edge2" class="edge"><title>User&#45;&gt;Review</title>
<path fill="none" stroke="#f9b8ac" d="M243.387,-176.897C234.76,-162.259 224.324,-142.637 218,-124 209.306,-98.3792 204.671,-67.7538 202.294,-46.2092"/>
<ellipse fill="none" stroke="#f9b8ac" cx="245.639" cy="-180.638" rx="4.00002" ry="4.00002"/>
<polygon fill="#f9b8ac" stroke="#f9b8ac" points="202.282,-46.084 205.752,-35.6816 201.778,-41.1094 201.274,-36.1348 201.274,-36.1348 201.274,-36.1348 201.778,-41.1094 196.797,-36.5881 202.282,-46.084 202.282,-46.084"/>
</g>
<!-- Profile -->
<g id="node5" class="node"><title>Profile</title>
<ellipse fill="none" stroke="black" cx="261" cy="-106" rx="34.1708" ry="18"/>
<text text-anchor="middle" x="261" y="-102.3" font-family="Times,serif" font-size="14.00">Profile</text>
</g>
<!-- User&#45;&gt;Profile -->
<g id="edge3" class="edge"><title>User&#45;&gt;Profile</title>
<path fill="none" stroke="#6cf726" d="M258.821,-174.562C259.243,-161.454 259.758,-145.513 260.18,-132.408"/>
<ellipse fill="none" stroke="#6cf726" cx="258.679" cy="-178.944" rx="4" ry="4"/>
<ellipse fill="#6cf726" stroke="#6cf726" cx="260.314" cy="-128.262" rx="4" ry="4"/>
</g>
<!-- Book -->
<g id="node6" class="node"><title>Book</title>
<ellipse fill="none" stroke="black" cx="343" cy="-106" rx="29.3479" ry="18"/>
<text text-anchor="middle" x="343" y="-102.3" font-family="Times,serif" font-size="14.00">Book</text>
</g>
<!-- User&#45;&gt;Book -->
<g id="edge1" class="edge"><title>User&#45;&gt;Book</title>
<path fill="none" stroke="#73cd00" d="M277.164,-179.032C290.606,-164.325 308.562,-144.68 322.325,-129.62"/>
<ellipse fill="none" stroke="#73cd00" cx="274.355" cy="-182.105" rx="4.00002" ry="4.00002"/>
<polygon fill="#73cd00" stroke="#73cd00" points="322.348,-129.595 332.416,-125.25 325.722,-125.905 329.095,-122.214 329.095,-122.214 329.095,-122.214 325.722,-125.905 325.773,-119.178 322.348,-129.595 322.348,-129.595"/>
</g>
<!-- Category -->
<g id="node4" class="node"><title>Category</title>
<ellipse fill="none" stroke="black" cx="346" cy="-201" rx="42.3456" ry="18"/>
<text text-anchor="middle" x="346" y="-197.3" font-family="Times,serif" font-size="14.00">Category</text>
</g>
<!-- Category&#45;&gt;Book -->
<g id="edge4" class="edge"><title>Category&#45;&gt;Book</title>
<path fill="none" stroke="#8d802f" d="M345.179,-174.562C344.777,-162.078 344.291,-147.025 343.881,-134.299"/>
<ellipse fill="none" stroke="#8d802f" cx="345.321" cy="-178.944" rx="4" ry="4"/>
<polygon fill="#8d802f" stroke="#8d802f" points="343.879,-134.259 348.055,-124.119 343.718,-129.262 343.557,-124.264 343.557,-124.264 343.557,-124.264 343.718,-129.262 339.059,-124.41 343.879,-134.259 343.879,-134.259"/>
</g>
<!-- Book&#45;&gt;Review -->
<g id="edge6" class="edge"><title>Book&#45;&gt;Review</title>
<path fill="none" stroke="#283499" d="M315.918,-88.7129C291.815,-74.2175 256.561,-53.0156 231.266,-37.8035"/>
<ellipse fill="none" stroke="#283499" cx="319.387" cy="-90.7992" rx="4.00002" ry="4.00002"/>
<polygon fill="#283499" stroke="#283499" points="231.007,-37.6475 224.756,-28.6373 226.722,-35.0705 222.437,-32.4936 222.437,-32.4936 222.437,-32.4936 226.722,-35.0705 220.118,-36.35 231.007,-37.6475 231.007,-37.6475"/>
</g>
<!-- ActsAsVotable::Vote -->
<g id="node7" class="node"><title>ActsAsVotable::Vote</title>
<ellipse fill="none" stroke="black" cx="343" cy="-18" rx="86.1637" ry="18"/>
<text text-anchor="middle" x="343" y="-14.3" font-family="Times,serif" font-size="14.00">ActsAsVotable::Vote</text>
</g>
<!-- Book&#45;&gt;ActsAsVotable::Vote -->
<g id="edge5" class="edge"><title>Book&#45;&gt;ActsAsVotable::Vote</title>
<path fill="none" stroke="#634202" d="M343,-79.3391C343,-68.8546 343,-56.7182 343,-46.091"/>
<ellipse fill="none" stroke="#634202" cx="343" cy="-83.5966" rx="4" ry="4"/>
<polygon fill="#634202" stroke="#634202" points="343,-46.084 347.5,-36.084 343,-41.084 343,-36.084 343,-36.084 343,-36.084 343,-41.084 338.5,-36.0841 343,-46.084 343,-46.084"/>
<text text-anchor="middle" x="369" y="-58.3" font-family="Times,serif" font-size="14.00">votes_for</text>
</g>
</g>
</svg>
